<svg width="1000" height="1000" xmlns="http://www.w3.org/2000/svg">
 <metadata>Svg Vector Icons : http://www.onlinewebfonts.com/icon</metadata>

 <g>
  <title>background</title>
  <rect fill="none" id="canvas_background" height="602" width="802" y="-1" x="-1"/>
 </g>
 <g>
  <title>Layer 1</title>
  <g id="svg_1">
   <path fill="#999999" id="svg_2" d="m990,210.3c0,38.7 -31.3,70 -70,70l-840,0c-38.7,0 -70,-31.3 -70,-70l0,0c0,-38.7 31.3,-70 70,-70l840,0c38.5,-0.1 70,31.3 70,70l0,0l0,0z"/>
   <path fill="#999999" id="svg_3" d="m713.4,500c0,38.7 -31.3,70 -70,70l-563.4,0c-38.7,0 -70,-31.3 -70,-70l0,0c0,-38.7 31.3,-70 70,-70l563.3,0c38.7,0 70.1,31.3 70.1,70l0,0l0,0z"/>
   <path fill="#999999" id="svg_4" d="m503.4,789.7c0,38.7 -31.3,70 -70,70l-353.4,0c-38.7,0 -70,-31.3 -70,-70l0,0c0,-38.7 31.3,-70 70,-70l353.4,0c38.7,0 70,31.5 70,70l0,0l0,0z"/>
  </g>
 </g>
</svg>